<?xml version="1.0" encoding="utf-8"?>
<!-- Generator: Adobe Illustrator 16.0.4, SVG Export Plug-In . SVG Version: 6.00 Build 0)  -->
<!DOCTYPE svg PUBLIC "-//W3C//DTD SVG 1.1//EN" "http://www.w3.org/Graphics/SVG/1.1/DTD/svg11.dtd">
<svg version="1.1" id="Layer_1" xmlns="http://www.w3.org/2000/svg" xmlns:xlink="http://www.w3.org/1999/xlink" x="0px" y="0px"
	 width="296.518px" height="146.193px" viewBox="0 0 296.518 146.193" enable-background="new 0 0 296.518 146.193"
	 xml:space="preserve">
<g>
	<g>
		<path d="M174.797,49.138c-5.17,0.711-10.342,2.094-12.924,6.319v-11.31h11.421c0.426-4.641,3.336-6.465,7.83-6.465
			c4.142,0,7.631,0.737,7.631,5.812C188.755,48.32,182.022,48.064,174.797,49.138 M188.755,57.298c0,2.562-0.323,9.871-9.565,9.871
			c-3.812,0-7.221-1.068-7.221-5.476c0-4.323,3.347-5.585,6.981-6.319c3.649-0.666,7.799-0.742,9.805-2.493V57.298z M130.422,66.178
			c-6.983,0-10.036-6.573-10.036-13.72c0-7.213,3.053-13.78,10.036-13.78c6.979,0,10.053,6.567,10.053,13.78
			C140.475,59.604,137.4,66.178,130.422,66.178 M89.92,66.178c-7.986,0-10.398-6.909-10.398-13.72c0-6.885,2.412-13.78,10.398-13.78
			c8.061,0,10.463,6.896,10.463,13.78C100.383,59.269,97.98,66.178,89.92,66.178 M260.651,30.943h-12.118l-7.876,29.081h-0.18
			l-7.302-29.081h-11.473l-7.13,29.167h-0.175l-7.889-29.167h-12.455l0.365,1.13c-3.663-1.788-8.414-2.288-12.734-2.288
			c-8.814,0-17.872,2.795-19.816,11.775V17.683h-11.78v23.009c-3.248-7.49-9.59-10.907-15.603-10.907
			c-5.308,0-10.644,1.997-13.543,6.398h-0.158v-18.5h-11.791v22.084c-3.694-6.284-10.388-9.982-19.074-9.982
			c-13.463,0-22.172,8.964-22.172,22.673c0,3.34,0.512,6.391,1.502,9.093H57.273c-9.688,0-9.544-4.699-9.544-8.429V17.686H35.866
			c0,0,0.117,35.016,0,41.862c0,13.627,10.347,14.039,19.408,14.039h20.219v-3.178c3.708,2.989,8.636,4.662,14.427,4.662
			c8.687,0,15.38-3.708,19.084-9.958v8.784h11.2v-5.478h0.188c2.558,4.729,7.78,6.652,14.095,6.652
			c6.013,0,12.354-3.411,15.603-10.938v9.765h11.784v-4.944c2.444,4.141,7.288,6.118,12.924,6.118
			c5.238,0,10.722-1.406,14.449-5.325c0.096,1.419,0.429,2.831,0.845,4.151h11.939c-1.063-1.745-1.478-5.644-1.478-9.56V51.421
			l7.134,22.477h12.199l7.312-28.82h0.155l7.653,28.82h12.115L260.651,30.943z"/>
	</g>
	<g>
		<path d="M37.111,84.509h17.817c3.29,0,6.14,0.562,8.548,1.685c2.408,1.125,4.373,2.659,5.898,4.605s2.658,4.223,3.401,6.832
			c0.743,2.609,1.113,5.397,1.113,8.367c0,2.97-0.37,5.759-1.113,8.367s-1.876,4.886-3.401,6.832
			c-1.525,1.947-3.49,3.481-5.898,4.604c-2.408,1.125-5.258,1.686-8.548,1.686H37.111V84.509z M44.636,121.348h7.404
			c2.929,0,5.327-0.392,7.192-1.174c1.866-0.782,3.331-1.866,4.395-3.25c1.062-1.384,1.786-3.009,2.167-4.876
			c0.381-1.865,0.571-3.882,0.571-6.049s-0.19-4.184-0.571-6.05c-0.381-1.866-1.105-3.491-2.167-4.876
			c-1.063-1.384-2.528-2.467-4.395-3.25c-1.865-0.782-4.264-1.174-7.192-1.174h-7.404V121.348z"/>
		<path d="M80.57,84.509h7.524v42.979H80.57V84.509z"/>
		<path d="M134.805,127.487h-4.814l-1.145-5.057c-2.008,2.288-4.014,3.874-6.02,4.755c-2.007,0.882-4.313,1.324-6.922,1.324
			c-3.212,0-6.09-0.592-8.639-1.775c-2.548-1.184-4.704-2.799-6.47-4.846c-1.766-2.046-3.121-4.434-4.063-7.163
			c-0.943-2.729-1.415-5.637-1.415-8.728c0-3.049,0.472-5.939,1.415-8.668c0.942-2.729,2.298-5.117,4.063-7.163
			c1.766-2.047,3.922-3.672,6.47-4.876c2.549-1.204,5.427-1.806,8.639-1.806c2.327,0,4.544,0.311,6.65,0.933
			c2.107,0.623,3.983,1.545,5.628,2.769c1.646,1.225,3.011,2.76,4.095,4.605c1.083,1.846,1.766,3.973,2.047,6.381h-7.345
			c-0.202-1.404-0.631-2.639-1.294-3.703c-0.662-1.062-1.495-1.956-2.498-2.678c-1.004-0.723-2.128-1.264-3.37-1.625
			c-1.244-0.361-2.55-0.542-3.913-0.542c-2.287,0-4.265,0.462-5.929,1.384c-1.666,0.924-3.02,2.158-4.064,3.703
			c-1.044,1.545-1.815,3.301-2.316,5.267c-0.503,1.967-0.751,3.973-0.751,6.02c0,2.046,0.248,4.054,0.751,6.02
			c0.501,1.966,1.272,3.722,2.316,5.267c1.045,1.546,2.398,2.779,4.064,3.702c1.664,0.923,3.642,1.384,5.929,1.384
			c1.927,0.04,3.632-0.211,5.117-0.753c1.483-0.541,2.737-1.324,3.762-2.347c1.023-1.023,1.795-2.277,2.317-3.762
			c0.521-1.484,0.803-3.13,0.843-4.937h-11.437v-5.718h18.298V127.487z"/>
		<path d="M142.991,84.509h7.524v42.979h-7.524V84.509z"/>
		<path d="M155.632,84.509h34.791v6.5h-13.662v36.478h-7.525V91.009h-13.604V84.509z"/>
		<path d="M201.378,84.509h8.008l16.553,42.979h-8.066l-4.033-11.376h-17.156l-4.032,11.376h-7.765L201.378,84.509z
			 M198.729,110.392h13.123l-6.44-18.479h-0.181L198.729,110.392z"/>
		<path d="M230.03,84.509h7.525v36.478h21.85v6.501H230.03V84.509z"/>
	</g>
</g>
</svg>
