<?xml version="1.0" encoding="utf-8"?>
<!-- Generator: Adobe Illustrator 16.0.4, SVG Export Plug-In . SVG Version: 6.00 Build 0)  -->
<!DOCTYPE svg PUBLIC "-//W3C//DTD SVG 1.1//EN" "http://www.w3.org/Graphics/SVG/1.1/DTD/svg11.dtd">
<svg version="1.1" id="Layer_1" xmlns="http://www.w3.org/2000/svg" xmlns:xlink="http://www.w3.org/1999/xlink" x="0px" y="0px"
	 width="167.159px" height="136.947px" viewBox="0 0 167.159 136.947" enable-background="new 0 0 167.159 136.947"
	 xml:space="preserve">
<g>
	<g>
		<path fill="#D7252D" d="M85.18,75.16c0-2.872,1.479-3.391,4.222-1.865c5.034,2.816,10.286,5.73,10.286,5.73
			c0.174-1.611,1.568-2.969,4.592-2.266c2.812,0.654,5.961,1.349,5.961,1.349s-1.692-3.824-2.454-5.499
			c-1.383-3.074-0.052-4.559,1.294-4.987c0,0-1.927-1.311-3.194-2.19c-2.721-1.894-2.081-3.729,0.561-4.867
			c3.608-1.542,8.073-3.55,8.073-3.55c-1.415-0.838-3.091-3.174-1.222-5.898c1.848-2.687,4.615-6.437,4.615-6.437
			s-4.887,0.049-8.133,0c-2.955-0.039-3.681-2.373-3.646-4.062c0,0-4.806,3.398-8.246,5.723c-2.896,1.954-5.518,0.049-5.087-3.301
			c0.687-5.248,1.306-11.044,1.306-11.044c-1.785,1.221-4.838,1.162-6.189-1.748c-2.014-4.325-4.323-9.395-4.323-9.395
			s-2.312,5.07-4.317,9.395c-1.345,2.91-4.416,2.969-6.197,1.748c0,0,0.619,5.797,1.302,11.044c0.435,3.351-2.19,5.255-5.078,3.301
			c-3.438-2.325-8.252-5.723-8.252-5.723c0.032,1.689-0.683,4.023-3.646,4.062c-3.247,0.049-8.119,0-8.119,0s2.762,3.75,4.604,6.437
			c1.871,2.724,0.179,5.061-1.216,5.898c0,0,4.465,2.008,8.059,3.55c2.653,1.137,3.294,2.973,0.559,4.867
			c-1.268,0.879-3.191,2.19-3.191,2.19c1.351,0.428,2.683,1.913,1.29,4.987c-0.754,1.675-2.445,5.499-2.445,5.499
			s3.148-0.694,5.97-1.349c3.023-0.703,4.419,0.654,4.592,2.266c0,0,5.237-2.914,10.286-5.73c2.734-1.525,4.205-1.007,4.219,1.865
			c0,2.245,0,7.05,0,7.05c0.004,4.063-0.717,8.525-2.271,10.896c-19.34-2.109-35.332-17.571-35.374-37.986
			c-0.024-21.015,17.565-38.046,39.217-38.046c21.632,0,39.194,17.031,39.194,38.046c0,19.65-15.276,35.702-34.828,37.811
			c0,0.677,0,4.114,0,5.148c22.98-2.095,40.958-20.528,40.958-42.959c0-23.828-20.298-43.154-45.324-43.154
			c-25.04,0-45.335,19.326-45.335,43.154c0,20.978,15.728,38.436,36.568,42.342c3.523,0.664,5.767,1.185,7.609,3.456
			c2.229-4.068,2.755-12.693,2.755-17.566C85.18,83.352,85.18,77.405,85.18,75.16z"/>
		<g>
			<path fill="#D7252D" d="M38.245,124.962v-11.953h5.82c3.113,0.013,4.5,1.309,4.613,2.981c0.037,0.729-0.146,1.505-0.666,2.109
				c-0.532,0.604-0.781,0.807-1.756,1.275l4.412,5.6h-3.267l-3.896-4.948h-2.64v4.936H38.245z M40.866,118.438h1.189
				c3.237,0,3.899-0.526,3.899-2.096c0-1.544-1.423-1.79-3.532-1.79h-1.557V118.438z"/>
			<path fill="#D7252D" d="M11.972,124.98l5.242-11.972h3.178l5.182,11.966h-3.24l-1.395-3.217h-5.531l-1.404,3.223H11.972z
				 M16.103,120.188h4.15l-2.066-4.759L16.103,120.188z"/>
			<path fill="#D7252D" d="M29.304,124.975v-11.966h2.803v11.966H29.304z"/>
			<path fill="#D7252D" d="M70.744,124.563c-1.328,0.528-3.013,0.788-4.957,0.788c-2.372-0.007-4.216-0.572-5.536-1.699
				c-1.318-1.12-1.979-2.676-1.973-4.674c0.004-2.038,0.681-3.607,2.014-4.701c1.34-1.087,3.247-1.627,5.724-1.627
				c1.577,0.007,3.143,0.163,4.705,0.475l-0.003,1.974c-1.768-0.528-3.417-0.788-4.615-0.788c-1.521,0-2.702,0.391-3.534,1.197
				c-0.832,0.801-1.249,1.954-1.251,3.438c0,1.459,0.434,2.592,1.328,3.412c0.887,0.82,2.12,1.236,3.706,1.236
				c1.412,0,3.014-0.292,4.393-0.898V124.563z"/>
			<path fill="#D7252D" d="M74.167,124.98l5.243-11.972h3.186l5.179,11.966h-3.253l-1.391-3.217h-5.518l-1.415,3.223H74.167z
				 M78.308,120.188h4.141l-2.055-4.759L78.308,120.188z"/>
			<path fill="#D7252D" d="M108.766,124.98l5.235-11.972h3.178l5.182,11.966h-3.246l-1.383-3.217h-5.538l-1.403,3.223H108.766z
				 M112.894,120.188h4.146l-2.063-4.759L112.894,120.188z"/>
			<path fill="#D7252D" d="M141.579,124.98l5.246-11.972h3.18l5.183,11.966h-3.252l-1.39-3.217h-5.521l-1.415,3.223H141.579z
				 M145.718,120.188h4.143l-2.061-4.759L145.718,120.188z"/>
			<path fill="#D7252D" d="M91.761,124.975v-11.966h3.23l7.485,8.534l0.003-8.534h2.277v11.966h-2.934l-7.789-8.938v8.938H91.761z"
				/>
			<path fill="#D7252D" d="M126.293,124.975v-11.966h5.799c2.083,0.007,3.678,0.507,4.782,1.497
				c1.098,0.983,1.646,2.408,1.641,4.258c0,1.972-0.599,3.502-1.771,4.596c-1.175,1.088-2.822,1.621-4.931,1.615H126.293z
				 M129.105,123.262l2.065,0.007c1.465,0.007,2.562-0.357,3.281-1.081c0.721-0.723,1.083-1.822,1.086-3.293
				c0.008-1.14-0.281-2.098-0.854-2.858c-0.399-0.521-0.868-0.886-1.439-1.082c-0.561-0.201-1.373-0.306-2.447-0.306l-1.692-0.007
				V123.262z"/>
		</g>
	</g>
	<g>
		<rect y="114.848" fill="none" width="11.972" height="11.972"/>
		<rect x="77.184" fill="none" width="11.971" height="11.972"/>
		<rect x="155.188" y="117.39" fill="none" width="11.972" height="11.973"/>
		<rect x="83.292" y="124.975" fill="none" width="11.972" height="11.973"/>
		<rect fill="none" width="167.159" height="136.947"/>
		<rect fill="none" width="167.159" height="136.947"/>
	</g>
</g>
</svg>
