<?xml version="1.0" encoding="utf-8"?>
<!-- Generator: Adobe Illustrator 16.0.0, SVG Export Plug-In . SVG Version: 6.00 Build 0)  -->
<!DOCTYPE svg PUBLIC "-//W3C//DTD SVG 1.1//EN" "http://www.w3.org/Graphics/SVG/1.1/DTD/svg11.dtd">
<svg version="1.1" id="Layer_1" xmlns="http://www.w3.org/2000/svg" xmlns:xlink="http://www.w3.org/1999/xlink" x="0px" y="0px"
	 width="108px" height="108px" viewBox="0 0 108 108" enable-background="new 0 0 108 108" xml:space="preserve">
<path fill="#BE1E2D" d="M97.82,83.749c0,4.039-3.27,7.311-7.309,7.311H17.491c-4.038,0-7.312-3.271-7.312-7.311V10.727
	c0-4.035,3.273-7.308,7.312-7.308h73.021c4.039,0,7.309,3.273,7.309,7.308V83.749z"/>
<g>
	<g>
		<path fill="#FFFFFF" d="M12.52,53.444h6.133l2.752,10.654h0.046l2.752-10.654h6.133v15.981h-3.917V57.293h-0.046l-3.356,12.133
			h-3.178l-3.357-12.133h-0.044v12.133H12.52V53.444z"/>
		<path fill="#FFFFFF" d="M37.001,56.357h-3.802v-2.913h3.802V56.357z M33.199,57.81h3.802v11.616h-3.802V57.81z"/>
		<path fill="#FFFFFF" d="M39.688,57.81h3.692v1.59h0.044c0.694-1.186,2.261-1.925,3.646-1.925c3.874,0,4.188,2.819,4.188,4.497
			v7.454h-3.805v-5.619c0-1.588,0.18-3.199-1.903-3.199c-1.432,0-2.058,1.209-2.058,2.483v6.335h-3.804V57.81z"/>
		<path fill="#FFFFFF" d="M65.289,69.426h-3.626v-1.343H61.62c-0.739,1.095-1.858,1.677-3.201,1.677c-3.649,0-5.192-3.132-5.192-6.4
			c0-3.021,1.612-5.885,4.902-5.885c1.431,0,2.527,0.536,3.311,1.588h0.045v-5.618h3.805V69.426z M57.031,63.495
			c0,1.587,0.582,3.355,2.327,3.355c1.857,0,2.262-1.769,2.262-3.244c0-1.678-0.605-3.223-2.262-3.223
			C57.613,60.384,57.031,62.017,57.031,63.495z"/>
		<path fill="#FFFFFF" d="M68.713,60.272h-1.836V57.81h1.836c0-3.334,1.162-4.365,4.408-4.365c0.605,0,1.23,0.047,1.834,0.067v2.687
			c-0.357-0.044-0.691-0.068-1.029-0.068c-0.871,0-1.408,0.112-1.408,1.163v0.517h2.283v2.463h-2.283v9.153h-3.805V60.272z"/>
		<path fill="#FFFFFF" d="M87.711,69.426h-3.693v-1.589h-0.043c-0.715,1.185-2.193,1.923-3.537,1.923
			c-3.334,0-4.297-1.923-4.297-4.967V57.81h3.807v6.736c0,1.544,0.67,2.082,1.879,2.082c0.828,0,2.08-0.538,2.08-2.598V57.81h3.805
			V69.426z"/>
		<path fill="#FFFFFF" d="M90.396,53.444h3.805v15.981h-3.805V53.444z"/>
	</g>
</g>
<g>
	<g>
		<path fill="#FFFFFF" d="M44.761,76.104c-0.213-1.989-1.538-2.843-3.448-2.843c-1.558,0-3.116,0.563-3.116,2.374
			c0,1.713,2.221,1.968,4.461,2.475c2.22,0.505,4.44,1.284,4.44,4.012c0,2.962-2.9,4.149-5.435,4.149
			c-3.116,0-5.746-1.52-5.746-4.91h1.752c0,2.34,1.948,3.352,4.053,3.352c1.675,0,3.526-0.522,3.526-2.532
			c0-1.909-2.221-2.239-4.442-2.726c-2.221-0.487-4.46-1.129-4.46-3.684c0-2.823,2.513-4.07,5.045-4.07
			c2.845,0,5.006,1.342,5.123,4.403H44.761z"/>
		<path fill="#FFFFFF" d="M48.19,75.869h1.559v1.597h0.039c0.701-1.247,1.831-1.83,3.274-1.83c2.649,0,3.467,1.52,3.467,3.68v6.626
			h-1.655v-6.82c0-1.226-0.779-2.026-2.047-2.026c-2.006,0-2.98,1.345-2.98,3.158v5.688H48.19V75.869z"/>
		<path fill="#FFFFFF" d="M67.068,85.902c-0.293,0.175-0.664,0.271-1.189,0.271c-0.855,0-1.402-0.467-1.402-1.559
			c-0.916,1.072-2.143,1.559-3.543,1.559c-1.834,0-3.334-0.817-3.334-2.823c0-2.279,1.695-2.766,3.409-3.098
			c1.833-0.351,3.392-0.232,3.392-1.482c0-1.439-1.188-1.676-2.24-1.676c-1.404,0-2.436,0.431-2.514,1.911H57.99
			c0.098-2.493,2.025-3.37,4.266-3.37c1.812,0,3.779,0.407,3.779,2.768v5.179c0,0.782,0,1.131,0.527,1.131
			c0.137,0,0.291-0.018,0.506-0.098V85.902z M64.381,80.737c-0.643,0.471-1.889,0.489-3,0.684c-1.092,0.194-2.026,0.585-2.026,1.813
			c0,1.091,0.935,1.479,1.948,1.479c2.182,0,3.078-1.362,3.078-2.279V80.737z"/>
		<path fill="#FFFFFF" d="M74.57,79.102c-0.254-1.264-1.131-2.007-2.494-2.007c-2.396,0-3.137,1.891-3.137,3.938
			c0,1.849,0.838,3.681,2.941,3.681c1.596,0,2.551-0.935,2.766-2.454h1.695c-0.369,2.454-1.91,3.915-4.441,3.915
			c-3.078,0-4.715-2.143-4.715-5.142c0-3.022,1.559-5.396,4.754-5.396c2.277,0,4.109,1.071,4.344,3.466H74.57z"/>
		<path fill="#FFFFFF" d="M77.414,72.032h1.654v8.239l4.598-4.402h2.223l-3.996,3.665l4.287,6.407h-2.105l-3.445-5.26l-1.561,1.44
			v3.819h-1.654V72.032z"/>
		<path fill="#FFFFFF" d="M87.564,82.766c0.059,1.48,1.344,1.947,2.707,1.947c1.033,0,2.436-0.232,2.436-1.498
			c0-1.285-1.637-1.5-3.291-1.871c-1.637-0.369-3.293-0.916-3.293-2.844c0-2.024,2.004-2.864,3.76-2.864
			c2.221,0,3.994,0.702,4.129,3.158h-1.656c-0.115-1.288-1.244-1.699-2.336-1.699c-0.996,0-2.145,0.276-2.145,1.289
			c0,1.186,1.754,1.383,3.293,1.752c1.654,0.372,3.293,0.918,3.293,2.865c0,2.396-2.24,3.173-4.287,3.173
			c-2.26,0-4.168-0.915-4.266-3.408H87.564z"/>
	</g>
</g>
<g>
	<path fill="#BE1E2D" d="M10.931,99.5h1.57v0.675h0.019c0.295-0.494,0.819-0.817,1.418-0.817c0.619,0,1.17,0.2,1.437,0.799
		c0.391-0.522,0.876-0.799,1.542-0.799c1.57,0,1.742,1.188,1.742,2.132v2.949H17.04v-2.902c0-0.533-0.256-0.848-0.675-0.848
		c-0.695,0-0.762,0.533-0.762,1.333v2.417h-1.617v-2.807c0-0.581-0.171-0.943-0.609-0.943c-0.581,0-0.828,0.334-0.828,1.344v2.406
		h-1.618V99.5z"/>
	<path fill="#BE1E2D" d="M21.422,98.882h-1.618v-1.237h1.618V98.882z M19.804,99.5h1.618v4.938h-1.618V99.5z"/>
	<path fill="#BE1E2D" d="M22.565,99.5h1.57v0.675h0.02c0.294-0.503,0.961-0.817,1.551-0.817c1.646,0,1.779,1.199,1.779,1.913v3.168
		h-1.617v-2.39c0-0.676,0.076-1.36-0.809-1.36c-0.609,0-0.875,0.515-0.875,1.057v2.693h-1.619V99.5z"/>
	<path fill="#BE1E2D" d="M33.455,104.438h-1.542v-0.571h-0.02c-0.313,0.467-0.79,0.714-1.36,0.714c-1.551,0-2.208-1.332-2.208-2.721
		c0-1.285,0.685-2.503,2.083-2.503c0.609,0,1.075,0.229,1.408,0.675h0.02v-2.388h1.618V104.438z M29.943,101.917
		c0,0.675,0.248,1.427,0.99,1.427c0.79,0,0.96-0.752,0.96-1.38c0-0.713-0.256-1.369-0.96-1.369
		C30.191,100.595,29.943,101.288,29.943,101.917z"/>
	<path fill="#BE1E2D" d="M34.913,100.546h-0.781V99.5h0.781c0-1.418,0.495-1.855,1.875-1.855c0.257,0,0.523,0.019,0.779,0.028v1.142
		c-0.151-0.02-0.294-0.028-0.438-0.028c-0.371,0-0.6,0.048-0.6,0.494v0.22h0.971v1.046H36.53v3.893h-1.617V100.546z"/>
	<path fill="#BE1E2D" d="M42.994,104.438h-1.57v-0.677h-0.019c-0.305,0.506-0.933,0.819-1.504,0.819
		c-1.418,0-1.826-0.819-1.826-2.112V99.5h1.617v2.863c0,0.657,0.286,0.886,0.799,0.886c0.352,0,0.885-0.229,0.885-1.104V99.5h1.618
		V104.438z"/>
	<path fill="#BE1E2D" d="M44.139,97.645h1.617v6.794h-1.617V97.645z"/>
	<path fill="#BE1E2D" d="M47.461,102.888c0.029,0.723,0.656,0.95,1.322,0.95c0.505,0,1.19-0.113,1.19-0.731
		c0-0.628-0.799-0.732-1.609-0.915c-0.799-0.18-1.608-0.446-1.608-1.388c0-0.99,0.98-1.399,1.837-1.399
		c1.085,0,1.95,0.343,2.017,1.542h-0.809c-0.056-0.628-0.609-0.828-1.141-0.828c-0.486,0-1.047,0.134-1.047,0.629
		c0,0.58,0.856,0.676,1.608,0.855c0.809,0.181,1.608,0.446,1.608,1.399c0,1.17-1.094,1.551-2.093,1.551
		c-1.104,0-2.037-0.447-2.085-1.665H47.461z"/>
	<path fill="#BE1E2D" d="M51.727,99.519h0.762v0.78h0.019c0.343-0.609,0.895-0.895,1.599-0.895c1.295,0,1.693,0.743,1.693,1.799
		v3.235h-0.808v-3.33c0-0.601-0.381-0.99-1-0.99c-0.979,0-1.455,0.657-1.455,1.541v2.779h-0.809V99.519z"/>
	<path fill="#BE1E2D" d="M61.379,104.419c-0.143,0.087-0.322,0.134-0.581,0.134c-0.418,0-0.685-0.229-0.685-0.762
		c-0.447,0.523-1.047,0.762-1.731,0.762c-0.896,0-1.628-0.399-1.628-1.38c0-1.113,0.828-1.352,1.666-1.514
		c0.895-0.17,1.654-0.114,1.654-0.723c0-0.703-0.58-0.818-1.094-0.818c-0.685,0-1.188,0.209-1.227,0.933h-0.81
		c0.048-1.218,0.991-1.646,2.083-1.646c0.886,0,1.847,0.2,1.847,1.352v2.531c0,0.38,0,0.551,0.258,0.551
		c0.067,0,0.142-0.008,0.247-0.047V104.419z M60.066,101.897c-0.314,0.228-0.924,0.238-1.467,0.333
		c-0.533,0.096-0.989,0.286-0.989,0.885c0,0.533,0.456,0.723,0.952,0.723c1.066,0,1.504-0.665,1.504-1.112V101.897z"/>
	<path fill="#BE1E2D" d="M65.473,101.099c-0.123-0.62-0.553-0.98-1.219-0.98c-1.168,0-1.531,0.924-1.531,1.922
		c0,0.903,0.408,1.798,1.438,1.798c0.779,0,1.246-0.455,1.35-1.198h0.828c-0.182,1.198-0.932,1.913-2.17,1.913
		c-1.504,0-2.301-1.046-2.301-2.513c0-1.475,0.76-2.636,2.32-2.636c1.113,0,2.008,0.523,2.123,1.694H65.473z"/>
	<path fill="#BE1E2D" d="M67.293,97.645h0.809v4.024l2.246-2.15h1.084l-1.951,1.789l2.094,3.131h-1.027l-1.684-2.569l-0.762,0.703
		v1.866h-0.809V97.645z"/>
	<path fill="#BE1E2D" d="M72.682,102.888c0.027,0.723,0.656,0.95,1.322,0.95c0.504,0,1.189-0.113,1.189-0.731
		c0-0.628-0.799-0.732-1.607-0.915c-0.801-0.18-1.609-0.446-1.609-1.388c0-0.99,0.98-1.399,1.836-1.399
		c1.086,0,1.951,0.343,2.02,1.542h-0.811c-0.057-0.628-0.609-0.828-1.141-0.828c-0.486,0-1.047,0.134-1.047,0.629
		c0,0.58,0.855,0.676,1.607,0.855c0.809,0.181,1.607,0.446,1.607,1.399c0,1.17-1.094,1.551-2.094,1.551
		c-1.104,0-2.035-0.447-2.084-1.665H72.682z"/>
	<path fill="#BE1E2D" d="M77.127,103.383h1.057v1.056h-1.057V103.383z"/>
	<path fill="#BE1E2D" d="M82.934,101.099c-0.123-0.62-0.551-0.98-1.219-0.98c-1.168,0-1.533,0.924-1.533,1.922
		c0,0.903,0.41,1.798,1.439,1.798c0.779,0,1.246-0.455,1.35-1.198h0.828c-0.18,1.198-0.932,1.913-2.168,1.913
		c-1.504,0-2.303-1.046-2.303-2.513c0-1.475,0.762-2.636,2.32-2.636c1.113,0,2.008,0.523,2.123,1.694H82.934z"/>
	<path fill="#BE1E2D" d="M86.828,99.404c1.561,0,2.389,1.132,2.389,2.578c0,1.438-0.828,2.57-2.389,2.57s-2.387-1.132-2.387-2.57
		C84.441,100.536,85.268,99.404,86.828,99.404z M86.828,103.838c0.848,0,1.531-0.665,1.531-1.855c0-1.198-0.684-1.864-1.531-1.864
		c-0.846,0-1.533,0.666-1.533,1.864C85.295,103.173,85.982,103.838,86.828,103.838z"/>
	<path fill="#BE1E2D" d="M90.17,99.519h0.762v0.723h0.02c0.361-0.552,0.914-0.837,1.588-0.837c0.6,0,1.152,0.238,1.352,0.837
		c0.334-0.523,0.912-0.837,1.543-0.837c0.979,0,1.635,0.409,1.635,1.429v3.605H96.26v-3.226c0-0.608-0.162-1.095-0.951-1.095
		c-0.779,0-1.283,0.494-1.283,1.255v3.065h-0.811v-3.226c0-0.638-0.199-1.095-0.922-1.095c-0.961,0-1.314,0.885-1.314,1.255v3.065
		H90.17V99.519z"/>
</g>
</svg>
