<?xml version="1.0" encoding="utf-8"?>
<!-- Generator: Adobe Illustrator 12.0.0, SVG Export Plug-In . SVG Version: 6.00 Build 51448)  -->
<!DOCTYPE svg PUBLIC "-//W3C//DTD SVG 1.1//EN" "http://www.w3.org/Graphics/SVG/1.1/DTD/svg11.dtd" [
	<!ENTITY ns_svg "http://www.w3.org/2000/svg">
	<!ENTITY ns_xlink "http://www.w3.org/1999/xlink">
]>
<svg  version="1.1" id="Layer_1" xmlns="&ns_svg;" xmlns:xlink="&ns_xlink;" width="723.13" height="307.773"
	 viewBox="0 0 723.13 307.773" overflow="visible" enable-background="new 0 0 723.13 307.773" xml:space="preserve">
<g>
	<polygon fill-rule="evenodd" clip-rule="evenodd" fill="#FFCB05" points="275.042,188.352 383.099,0 508.501,0 508.501,188.352 
		433.158,188.352 433.158,62.949 358.314,188.352 275.042,188.352 	"/>
	<polygon fill-rule="evenodd" clip-rule="evenodd" fill="#FFCB05" points="234.892,0 126.841,188.352 1.439,188.352 1.439,0 
		76.779,0 76.779,125.402 151.621,0 234.892,0 	"/>
	<polygon fill-rule="evenodd" clip-rule="evenodd" fill="#FFCB05" points="264.634,0 353.853,0 244.31,188.352 155.089,188.352 
		264.634,0 	"/>
	<path fill-rule="evenodd" clip-rule="evenodd" fill="#ED1C24" d="M617.603,188.008c0,0-1.141-42.049-1.141-45.127
		c-0.008-3.068,1.531-3.508,3.945-2.408l36.508,8.113c0,0-4.41-14.697-5.07-16.891c-0.66-2.195,0-4.389,1.969-6.588
		c1.973-2.189,38.805-34.076,38.805-34.076s-8.016-6.148-9.992-7.678c-1.977-1.541-2.004-3.996-0.996-6.148
		c1.641-3.514,9.16-19.348,9.16-19.348s-17.027,4.277-20.793,5.207c-2.305,0.57-4.715,0.08-5.836-2.156
		c-1.125-2.238-5.609-11.293-5.609-11.293l0.039,0.047c0,0-10.289,9.631-18.832,17.449c-3.07,2.855-5.535,0.002-4.879-2.85
		c0.652-2.854,9.168-40.885,9.168-40.885s-12.477,3.324-14.918,3.863c-2.438,0.543-4.348-1.008-5.359-3.158
		c-1.668-3.51-12.438-24.076-12.438-24.076s-10.738,20.566-12.387,24.076c-1.016,2.15-2.91,3.701-5.359,3.158
		c-2.445-0.539-14.922-3.863-14.922-3.863s8.598,38.031,9.254,40.885c0.664,2.852-1.797,5.705-4.871,2.85
		c-8.566-7.818-18.863-17.449-18.863-17.449l0.035-0.047c0,0-4.465,9.055-5.582,11.293c-1.121,2.236-3.531,2.727-5.836,2.156
		c-3.762-0.93-20.801-5.207-20.801-5.207s7.555,15.834,9.203,19.348c1.008,2.152,0.996,4.607-0.98,6.148
		c-1.977,1.529-9.977,7.678-9.977,7.678s36.895,31.887,38.875,34.076c1.977,2.199,2.637,4.393,1.98,6.588
		c-0.656,2.193-5.023,16.891-5.023,16.891l36.484-8.113c2.414-1.1,3.941-0.66,3.953,2.408c0.004,3.078-1.055,45.127-1.055,45.127
		H617.603L617.603,188.008z"/>
	<path fill-rule="evenodd" clip-rule="evenodd" d="M103.966,304.891c-3.029-0.945-5.643-3.086-5.643-9.648
		c0-1.828,0-14.039,0-19.922c0-1.133,0-2.008,0-2.484c0-8.063,0-27.141,0-29.086c0-6.563,2.613-8.695,5.643-9.641
		c1.932-0.609,2.217-1.492,0-1.492H83.47c-2.219,0-1.938,0.883,0,1.492c3.189,0.992,4.842,2.766,4.842,9.859
		c0,2.477,0,21.297,0,28.906c0,0.375,0,1.234,0,2.406c0,5.547,0,17.422,0,19.75c0,7.094-1.652,8.859-4.842,9.859
		c-1.934,0.602-2.219,1.492,0,1.492h20.496C106.183,306.383,105.9,305.492,103.966,304.891L103.966,304.891z"/>
	<path fill-rule="evenodd" clip-rule="evenodd" d="M78.191,232.563c2.975,0.125,0.352,1.383,0.352,1.383
		c-1.77,0.586-3.445,1.594-3.445,1.594c-3.93,1.859-7.713,12.25-7.713,12.25c-8.484,19.305-25.676,56.914-26.439,57.969
		s-1.207,1.547-2.133,1.547c-1.543,0-2.633-0.414-3.865-3.609c-5.865-16.469-18.699-48.164-21.375-54.234
		c-4.012-8.758-3.561-12.523-11.729-14.992c-0.787-0.242-3.48-1.297-0.404-1.859c0.205-0.039,12.316,0.055,19.004,0.055
		l12.318,0.023c2.367,0.547-1.939,1.883-1.939,1.883c-5.701,1.391-7.707,4.703-7.707,8.375c0,2.375,0.719,4.227,3.604,11.43
		c5.143,12.773,10.389,25.641,14.914,38.305c0,0,5.051-11.328,7.109-15.656l11.922-26.969c1.236-2.883,2.674-6.594,2.674-9.367
		c0-3.023-2.697-6.078-4.682-6.367c0,0-4.186-1.031-0.91-1.703c0,0,8.334,0.109,8.848,0.109c3.297,0,8.541-0.211,11.73-0.109
		l75.475,41.781c-3.5,0.203-7.1,0.414-10.602,0.414c-0.617,0-7.301,0-10.592-0.414l10.904-27.211l10.289,27.211L78.191,232.563
		L78.191,232.563z M109.769,304.844c-2.854,1.336-0.67,1.594-0.67,1.594s17.689,0.047,20.188,0c2.479-0.055,1.064-1.398,1.064-1.398
		c-4.125-0.852-5.77-4.797-5.77-6.813c0-1.75,1.439-5.664,2.262-7.82c1.234-3.398,2.572-6.797,3.91-10.297
		c4.631-0.203,8.127-0.305,12.139-0.305c4.217,0,8.434,0.203,12.652,0.305c1.543,4.328,4.217,11.117,5.762,15.547
		c0.307,1.023,0.615,2.055,0.615,3.188c0,0.992-0.209,1.742-0.672,2.305c0,0-0.676,2.328-4.195,3.297c0,0-2.998,1.094-1.662,1.883
		l1.906,0.203c5.234-0.102,9.031-0.07,14.283-0.07c2.627,0,5.256-0.047,7.887,0.047l2.973-0.063
		c2.791-0.547-1.029-1.695-1.029-1.695c-5.098-1.219-6.941-3.969-7.672-5.289c-0.826-1.438-1.129-2.367-3.395-8.336l-21.498-56.344
		c-0.617-1.75-0.719-2.164-2.059-2.164c-1.746,0-1.746,0.102-2.568,2.164l-19.545,48.625c-5.078,12.258-7.098,15.813-9.566,18.023
		C111.751,304.438,109.769,304.844,109.769,304.844L109.769,304.844z"/>
	<path fill-rule="evenodd" clip-rule="evenodd" d="M310.224,301.508c-0.619,0.977-1.771,2.391-4.064,2.391
		c-2.729,0-4.479-2.133-4.479-6.031c0-2.148,0-19.063,0-23.422c0-5.156,1.313-14.578-16.313-14.578
		c-8.959,0-16.906,3.008-16.906,8.063c0,2.992,2.328,4.602,4.242,4.602c8.063,0,2.508-10.516,11.41-10.516
		c7.09,0,8.125,6.953,8.125,9.859c0,5.109-0.275,6.938-3.463,8.727c-6.395,3.586-22.344,1.07-22.344,14.695
		c0,10.313,10.832,11.586,15.111,11.586c4.721,0,7.65-1.789,10.936-4.359c3.738,3.367,5.459,4.484,10.693,4.484
		c4.773,0,7.396-1.813,8.721-4.305C312.613,301.359,310.912,300.43,310.224,301.508L310.224,301.508z M292.177,294.695
		c0,6.633-4.703,9.68-8.48,9.68c-3.348,0-7.586-2.305-7.586-7.406c0-8.289,8.184-11.234,13.738-14.102
		c0.311-0.156,1.018-0.477,1.436-0.711c0.738-0.422,0.893-0.117,0.893,1.25C292.177,284.367,292.177,292.133,292.177,294.695
		L292.177,294.695z"/>
	<path fill-rule="evenodd" clip-rule="evenodd" d="M317.328,239.148c0-3.102,2.58-5.68,5.674-5.68c3.092,0,5.674,2.578,5.674,5.68
		c0,3.188-2.582,5.664-5.674,5.664c-1.443,0-2.99-0.617-4.023-1.648C317.947,242.133,317.328,240.688,317.328,239.148
		L317.328,239.148z"/>
	<path fill-rule="evenodd" clip-rule="evenodd" d="M334.666,304.898c-3.027-0.945-5.795-3.234-5.795-9.797
		c0-3.047,0-21.273,0-23.188h-0.025c0-4.031,0-7.328,0-7.688c0-2.641,0.258-3.578-2.33-3.227c-1.912,0.234-13.98,0.836-15.654,1.078
		c-1.924,0.273-0.838,1.188,0.838,1.188c5.074,0,6.9,5.023,7.313,10.781c0,5.406,0,18.461,0,21c0,7.086-1.652,8.859-4.84,9.852
		c-1.936,0.609-2.215,1.5,0,1.5h20.494C336.884,306.398,336.599,305.508,334.666,304.898L334.666,304.898z"/>
	<path fill-rule="evenodd" clip-rule="evenodd" d="M360.388,304.844c-3.027-0.945-5.857-3.297-5.857-9.859
		c0-2.406,0-14.281,0-20.109h0.029c0.016-11.07-0.047-19.914,0.041-26.953h-0.035c0-5.633,0-11.188,0-11.664
		c0-2.633,0.262-3.578-2.328-3.227c-1.914,0.242-13.98,0.836-15.652,1.078c-1.926,0.273-0.842,1.195,0.836,1.195
		c5.896,0,7.416,6.773,7.416,13.602h0.029c0.01,2.875-0.102,6.492-0.102,8.938v13.953h-0.029c0,1.906,0,20.141,0,23.188
		c0,7.086-1.656,8.867-4.842,9.859c-1.934,0.602-2.215,1.492,0,1.492h20.494C362.607,306.336,362.326,305.445,360.388,304.844
		L360.388,304.844z"/>
	<path fill-rule="evenodd" clip-rule="evenodd" d="M267.787,305.023c-3.027-0.945-7.377-1.305-13.928-9.859l-0.064,0.008
		c-0.896-1.078-1.891-2.297-3.029-3.695c-1.543-1.859-12.514-16.367-14.98-19.438c7.811-2.141,12.854-4.477,16.555-10.047
		c0.615-0.93,2.367-3.82,2.367-8.469c0-9.188-6.068-14.344-9.771-16.719c-4.631-2.883-10.279-4.289-17.061-4.289
		c0,0-10.121-0.078-11.719-0.031c-1.594,0.055-14.057,0.711-15.73,0.953c-1.926,0.273-0.84,1.547,0.836,1.547
		c5.564,0,7.029,6.633,7.18,13.047c0,0.273,0,0.539,0,0.828c0,12.156,0,21.406-0.014,28.531h0.047
		c0,6.258-0.684,15.203-0.684,17.109c0,7.094-1.656,9.422-4.842,10.414c-1.936,0.609-2.217,1.492,0,1.492h21.178
		c2.217,0,1.938-0.883,0-1.492c-3.025-0.945-5.793-3.789-5.793-10.359c0-2,0-10.57,0-16.742h0.059
		c0.018-1.656,0.029-3.203,0.029-4.555c6.779-0.102,7.09,0.414,12.125,6.688c3.287,4.117,17.986,23.766,20.047,26
		c0.408,0.508,0.613,0.609,1.127,0.609c1.633,0,3.264-0.055,4.893-0.086l11.174,0.047
		C270.005,306.516,269.72,305.633,267.787,305.023L267.787,305.023z M225.201,269.938c-2.258,0-4.518-0.102-6.779-0.414v-32.922
		c2.67-0.211,4.418-0.313,6.678-0.313c5.037,0,10.379,0.617,13.973,4.234c2.98,3.094,4.73,8.148,4.73,12.586
		C243.802,262.609,238.048,269.938,225.201,269.938L225.201,269.938z"/>
	<path fill-rule="evenodd" clip-rule="evenodd" d="M583.576,301.234c-0.621,0.977-1.773,2.391-4.066,2.391
		c-2.727,0-4.477-2.133-4.477-6.031c0-2.156,0-19.063,0-23.422c0-5.156,1.313-14.578-16.313-14.578c-8.961,0-16.91,3.008-16.91,8.07
		c0,2.984,2.332,4.594,4.246,4.594c8.063,0,2.504-10.516,11.41-10.516c7.09,0,8.125,6.953,8.125,9.859
		c0,5.109-0.277,6.938-3.469,8.727c-6.391,3.586-22.34,1.07-22.34,14.695c0,10.313,10.828,11.586,15.113,11.586
		c4.719,0,7.648-1.789,10.934-4.359c3.738,3.367,5.461,4.484,10.695,4.484c4.773,0,7.395-1.813,8.723-4.305
		C585.958,301.086,584.259,300.156,583.576,301.234L583.576,301.234z M565.529,294.422c0,6.633-4.703,9.68-8.48,9.68
		c-3.348,0-7.59-2.305-7.59-7.406c0-8.289,8.188-11.234,13.738-14.102c0.313-0.156,1.02-0.477,1.434-0.719
		c0.738-0.422,0.898-0.109,0.898,1.258C565.529,284.086,565.529,291.852,565.529,294.422L565.529,294.422z"/>
	<path fill-rule="evenodd" clip-rule="evenodd" d="M498.919,260.492c-1.258,0.227-11.168,1.68-12.246,1.797
		c-1.805,0.203-1.684,1.555,0,1.555c4.625,0,5.973,5.594,5.973,8.781c0,1.914,0,19.18,0,22.227c0,7.086-1.652,8.859-4.836,9.852
		c-1.938,0.609-2.219,1.5,0,1.5h19.895c2.219,0,1.934-0.891,0-1.5c-3.027-0.945-5.855-3.289-5.855-9.852c0-3.047,0-12.547,0-14.461
		c0-13.703,5.598-16.906,11.887-16.906c7.25,0,8.668,5.813,8.668,12.125c0,1.914,0,16.195,0,19.242c0,7.086-1.652,8.859-4.84,9.852
		c-1.938,0.609-2.223,1.5,0,1.5h20.492c2.215,0,1.934-0.891,0-1.5c-3.027-0.945-5.855-3.289-5.855-9.852c0-3.047,0-17.328,0-19.242
		c0-7.945-1.336-15.172-13.324-15.172c-6.367,0-11.555,1.391-14.816,4.063c-1.316,1.078-2.008,1.648-2.273,0.117
		C501.251,261.516,501.306,260.07,498.919,260.492L498.919,260.492z"/>
	<path fill-rule="evenodd" clip-rule="evenodd" d="M485.119,301.234c-0.625,0.977-1.77,2.391-4.066,2.391
		c-2.727,0-4.48-2.133-4.48-6.031c0-2.156,0-19.063,0-23.422c0-5.156,1.313-14.578-16.313-14.578c-8.957,0-16.906,3.008-16.906,8.07
		c0,2.984,2.332,4.594,4.242,4.594c8.066,0,2.512-10.516,11.414-10.516c7.09,0,8.125,6.953,8.125,9.859
		c0,5.109-0.277,6.938-3.469,8.727c-6.391,3.586-22.34,1.07-22.34,14.695c0,10.313,10.832,11.586,15.109,11.586
		c4.723,0,7.652-1.789,10.938-4.359c3.738,3.367,5.461,4.484,10.695,4.484c4.77,0,7.391-1.813,8.723-4.305
		C487.505,301.086,485.802,300.156,485.119,301.234L485.119,301.234z M467.072,294.422c0,6.633-4.703,9.68-8.484,9.68
		c-3.344,0-7.586-2.305-7.586-7.406c0-8.289,8.184-11.234,13.742-14.102c0.305-0.156,1.016-0.477,1.434-0.719
		c0.738-0.422,0.895-0.109,0.895,1.258C467.072,284.086,467.072,291.852,467.072,294.422L467.072,294.422z"/>
	<path fill-rule="evenodd" clip-rule="evenodd" d="M635.091,303.578c-3.523-0.289-6.039-4.047-6.039-10.336
		c0-3.164,0-55.617,0-57.469c0-2.633,0.262-3.578-2.328-3.227c-1.914,0.234-13.98,0.836-15.656,1.07
		c-1.922,0.281-0.84,1.195,0.836,1.195c5.898,0,7.594,4.641,7.594,11.477c0,3.641,0,14.695,0,15.711s-0.242,1.969-1.379,1.133
		s-5.434-3.641-9.855-3.641c-15.73,0-24.496,10.594-24.496,23.055c0,16.453,10.074,24.141,24.195,24.141
		c4.281,0,8.922-2.25,10.516-3.531c0.598-0.469,1.258-0.594,1.492,0.898c0.34,2.117,0.082,2.945,2.754,2.57
		c2.563-0.359,10.93-1.609,12.184-1.609C636.462,305.016,636.287,303.68,635.091,303.578L635.091,303.578z M608.982,304.297
		c-12.727,0-14.82-15.492-14.82-21.086c0-15.633,8.664-21.211,14.102-21.211c4.656,0,9.078,3.281,10.516,9.555
		c0.652,2.844,0.957,9.273,0.957,15.891C619.736,292.266,618.677,304.297,608.982,304.297L608.982,304.297z"/>
	<path fill-rule="evenodd" clip-rule="evenodd" fill="#ED1C24" d="M656.435,254.484c0,0-0.117-4.289-0.117-4.609
		c0-0.313,0.156-0.352,0.406-0.242l3.723,0.828c0,0-0.449-1.5-0.52-1.727c-0.063-0.219,0-0.445,0.207-0.672
		c0.199-0.227,3.961-3.477,3.961-3.477s-0.82-0.633-1.02-0.789c-0.203-0.156-0.207-0.406-0.102-0.625
		c0.168-0.359,0.934-1.977,0.934-1.977s-1.738,0.438-2.125,0.531c-0.23,0.063-0.477,0.008-0.594-0.219s-0.578-1.148-0.578-1.148
		h0.008c0,0-1.051,0.984-1.922,1.781c-0.313,0.289-0.563,0-0.496-0.289s0.938-4.18,0.938-4.18s-1.277,0.344-1.527,0.398
		s-0.445-0.102-0.547-0.32c-0.168-0.359-1.273-2.461-1.273-2.461s-1.094,2.102-1.262,2.461c-0.102,0.219-0.297,0.375-0.547,0.32
		s-1.523-0.398-1.523-0.398s0.875,3.891,0.945,4.18c0.066,0.289-0.184,0.578-0.496,0.289c-0.879-0.797-1.926-1.781-1.926-1.781
		h0.004c0,0-0.461,0.922-0.574,1.148s-0.359,0.281-0.594,0.219c-0.387-0.094-2.125-0.531-2.125-0.531s0.773,1.617,0.941,1.977
		c0.105,0.219,0.102,0.469-0.102,0.625s-1.02,0.789-1.02,0.789s3.766,3.25,3.973,3.477c0.199,0.227,0.27,0.453,0.199,0.672
		c-0.066,0.227-0.512,1.727-0.512,1.727l3.727-0.828c0.246-0.109,0.402-0.07,0.402,0.242c0,0.32-0.105,4.609-0.105,4.609H656.435
		L656.435,254.484z"/>
	<polygon fill-rule="evenodd" clip-rule="evenodd" fill="#ED1C24" points="645.244,256.203 645.244,233.141 634.251,233.141 
		634.251,256.203 645.244,256.203 	"/>
	<polygon fill-rule="evenodd" clip-rule="evenodd" fill="#ED1C24" points="677.146,256.203 677.146,233.141 666.154,233.141 
		666.154,256.203 677.146,256.203 	"/>
	<path fill-rule="evenodd" clip-rule="evenodd" d="M434.388,233.555c-0.734,1.828-0.723,2.211-2.449,2.211
		c-2.73,0-7.602-3.844-17.066-3.844c-22.078,0-37.102,17.961-37.102,39.305c0,19.023,14.324,36.547,35,36.547
		c15.277,0,24.746-8.805,27.906-22.281c0.477-2.828-2.184-3.609-2.797-0.836c-3.129,13.117-11.09,19.383-21.711,19.383
		c-16.07,0-24.57-12.523-24.57-31.68c0-27.648,13.344-37.563,23.281-37.563c13.848,0,16.766,11.234,20.434,20.375
		c0.438,1.523,0.77,3.063,2.195,2.891c1.035-0.125,0.945-0.18,0.945-2.352c0-3.945-1.313-17.328-1.313-20.555
		C437.142,231.938,434.861,232.305,434.388,233.555L434.388,233.555z"/>
	<path fill-rule="evenodd" clip-rule="evenodd" d="M681.912,302.43c0.719-1.344-0.984-2.273-1.672-1.195
		c-0.621,0.977-1.77,2.391-4.066,2.391c-2.727,0-4.48-2.133-4.48-6.031c0-2.156,0-19.063,0-23.422
		c0-5.156,1.316-14.578-16.309-14.578c-8.961,0-16.906,3.008-16.906,8.07c0,2.984,2.328,4.594,4.242,4.594
		c8.066,0,2.508-10.516,11.41-10.516c7.09,0,8.129,6.953,8.129,9.859c0,5.109-0.285,6.938-3.469,8.727
		c-6.395,3.586-22.344,1.07-22.344,14.695c0,10.313,10.832,11.586,15.117,11.586c4.719,0,7.645-1.789,10.93-4.359
		c3.742,3.367,5.465,4.484,10.695,4.484C677.962,306.734,680.58,304.922,681.912,302.43L681.912,302.43z M662.197,294.422
		c0,6.633-4.707,9.68-8.484,9.68c-3.344,0-7.586-2.305-7.586-7.406c0-8.289,8.184-11.234,13.738-14.102
		c0.313-0.156,1.016-0.477,1.434-0.719c0.738-0.422,0.898-0.109,0.898,1.258C662.197,284.086,662.197,291.852,662.197,294.422
		L662.197,294.422z"/>
	<polygon fill-rule="evenodd" clip-rule="evenodd" points="681.662,0 699.462,0 699.462,2.627 692.037,2.627 692.037,21.93 
		689.091,21.93 689.091,2.627 681.662,2.627 681.662,0 	"/>
	<path fill-rule="evenodd" clip-rule="evenodd" d="M720.263,21.93V8.977c0-0.641,0.063-3.426,0.063-5.475h-0.063l-6.176,18.428
		h-2.934l-6.176-18.396h-0.059c0,2.018,0.059,4.803,0.059,5.443V21.93h-2.863V0h4.238l6.266,18.547h0.063L718.916,0h4.215v21.93
		H720.263L720.263,21.93z"/>
</g>
</svg>
